<?xml version="1.0" standalone="no"?>
<!DOCTYPE svg PUBLIC "-//W3C//DTD SVG 20010904//EN"
 "http://www.w3.org/TR/2001/REC-SVG-20010904/DTD/svg10.dtd">
<svg version="1.0" xmlns="http://www.w3.org/2000/svg"
 width="232.000000pt" height="298.000000pt" viewBox="0 0 232.000000 298.000000"
 preserveAspectRatio="xMidYMid meet">

<g transform="translate(0.000000,298.000000) scale(0.100000,-0.100000)"
fill="#000000" stroke="none">
<path d="M681 2795 c-11 -14 -23 -40 -26 -56 -8 -38 8 -57 81 -99 65 -36 88
-75 88 -150 1 -49 -5 -64 -47 -131 -54 -87 -68 -125 -87 -225 -11 -61 -10 -80
4 -140 15 -65 15 -70 -3 -94 -23 -31 -47 -37 -59 -13 -6 10 -16 78 -23 150
-15 158 -8 188 52 257 23 26 43 45 45 43 3 -2 -5 -26 -17 -53 -12 -30 -22 -78
-25 -124 l-4 -75 24 93 c14 51 39 115 55 143 17 27 31 52 31 55 0 25 -218 62
-262 45 -13 -5 -94 -73 -182 -152 l-158 -143 6 -69 c3 -37 13 -78 21 -91 22
-34 74 -68 106 -71 16 -1 37 -9 47 -19 10 -9 32 -16 49 -16 18 0 33 -6 36 -15
8 -19 73 -52 122 -61 22 -4 49 -13 60 -20 26 -18 69 -18 85 1 7 8 9 26 5 43
-5 24 -2 30 21 41 31 14 41 9 19 -9 -21 -17 -19 -40 7 -67 12 -13 17 -23 11
-23 -6 0 -16 6 -22 14 -10 12 -16 10 -37 -11 -21 -21 -31 -24 -63 -18 l-38 6
-18 -93 c-9 -51 -28 -154 -41 -228 -13 -74 -38 -180 -56 -235 -23 -75 -31
-118 -31 -170 1 -155 1 -182 0 -222 -1 -23 2 -45 6 -50 13 -12 99 -19 146 -11
53 10 108 49 117 85 5 19 -4 48 -35 110 -22 46 -41 92 -41 103 0 11 20 41 44
68 35 40 44 59 50 102 9 65 47 144 81 166 24 15 28 15 69 0 58 -22 70 -38 91
-119 10 -38 24 -71 32 -74 21 -8 15 -23 -8 -23 -20 0 -21 -3 -15 -58 4 -38 2
-69 -5 -88 -7 -16 -16 -58 -20 -94 -4 -36 -12 -88 -17 -117 -11 -67 -2 -86 55
-123 56 -34 118 -40 163 -13 44 26 50 49 27 117 -17 51 -18 66 -8 127 6 37 11
89 11 115 0 38 7 58 35 98 29 42 37 66 46 136 9 64 18 91 35 110 40 45 64 122
64 213 0 45 5 89 10 97 7 10 10 -21 10 -96 0 -123 -16 -187 -56 -224 -13 -13
-24 -32 -24 -42 0 -15 9 -18 60 -18 36 0 74 7 91 16 36 18 51 12 20 -8 -28
-17 -27 -26 9 -81 20 -29 40 -82 56 -148 13 -57 36 -129 51 -161 25 -56 25
-59 9 -77 -23 -25 -14 -52 25 -86 45 -38 120 -36 160 4 33 33 34 44 15 109
-28 95 -56 288 -56 391 0 116 3 118 62 34 18 -28 36 -43 46 -41 35 7 23 39
-39 109 -69 79 -72 85 -88 269 -6 75 -14 106 -37 149 -52 97 -46 91 -79 73
-17 -8 -47 -19 -68 -23 -33 -6 -37 -5 -25 7 8 8 34 18 59 22 38 6 45 11 53 39
8 26 16 33 40 35 22 2 38 14 59 44 25 36 28 47 22 84 -6 34 -21 58 -77 118
-38 41 -88 99 -110 128 -51 68 -111 98 -238 120 -104 18 -153 11 -191 -27 -20
-20 -20 -20 -51 6 -27 23 -38 26 -91 23 l-61 -3 -12 -60 c-7 -32 -15 -92 -19
-132 -6 -63 -4 -79 15 -117 33 -70 46 -65 42 15 -3 54 0 77 17 111 22 46 101
130 86 93 -50 -132 -58 -206 -30 -286 32 -90 35 -117 13 -144 -39 -49 -61 -27
-72 70 -6 53 -11 64 -44 91 -37 32 -37 33 -41 119 -2 64 3 111 19 183 42 180
18 258 -110 373 -39 35 -70 69 -70 76 0 22 -38 14 -59 -12z m39 -55 c0 -5 -5
-10 -11 -10 -5 0 -7 5 -4 10 3 6 8 10 11 10 2 0 4 -4 4 -10z m-141 -405 c17
-20 31 -41 31 -47 0 -7 -3 -8 -8 -2 -4 5 -23 26 -41 47 -19 20 -30 37 -24 37
6 0 25 -16 42 -35z m786 6 c22 -4 33 -10 25 -13 -48 -16 -109 -37 -137 -49
-29 -12 -35 -11 -50 3 -15 16 -15 19 1 42 14 23 23 26 69 25 28 0 70 -4 92 -8z
m-875 -41 c-11 -7 -4 -10 26 -10 46 0 104 -17 104 -31 0 -12 -5 -12 -60 8 -48
17 -50 17 -105 -6 -77 -32 -91 -12 -21 30 32 20 86 28 56 9z m722 -79 c-8 -4
-10 -15 -6 -27 7 -18 6 -18 -12 -1 -19 18 -19 18 0 33 11 7 22 11 25 8 3 -3 0
-9 -7 -13z m-74 -71 c3 -14 -3 -29 -14 -37 -16 -11 -16 -18 -5 -69 7 -30 10
-58 7 -61 -6 -7 -10 3 -25 69 -13 53 -14 111 -4 122 14 14 38 0 41 -24z m112
-71 c0 -26 -12 -54 -41 -98 -23 -34 -43 -60 -46 -57 -2 2 12 30 33 61 30 45
38 66 38 105 1 55 16 44 16 -11z m-443 -67 c7 -4 -13 -8 -43 -8 -34 -1 -51 2
-42 7 16 11 69 11 85 1z m303 -164 c0 -18 -41 -58 -59 -58 -9 0 -29 10 -46 21
-16 12 -21 18 -10 13 11 -4 36 -8 55 -8 29 -1 36 3 38 22 3 23 22 32 22 10z
m66 -108 c19 -32 24 -35 64 -33 27 1 56 12 81 29 22 15 41 25 44 22 11 -11
-110 -78 -141 -78 -55 0 -101 83 -86 154 6 30 7 30 12 -14 3 -25 15 -61 26
-80z m228 72 c33 -23 47 -27 66 -20 12 5 25 6 28 3 7 -6 -45 -25 -71 -25 -13
0 -33 14 -50 35 -34 42 -28 44 27 7z m239 -187 c1 -107 -21 -187 -64 -237 -17
-19 -16 -14 5 28 33 69 49 170 42 274 -5 68 -4 80 5 60 7 -14 12 -70 12 -125z
m-899 -190 c12 -9 42 -15 78 -15 32 0 75 -7 96 -16 39 -16 92 -61 92 -78 0 -5
-10 0 -23 12 -12 11 -48 33 -79 47 -46 21 -66 25 -101 20 -38 -6 -48 -3 -73
19 -31 27 -23 36 10 11z m-139 -379 c32 -12 36 -16 22 -22 -21 -8 -67 10 -67
26 0 12 -3 13 45 -4z"/>
<path d="M1308 1212 c-3 -51 -10 -66 -45 -110 l-41 -52 -7 -114 c-8 -125 2
-168 41 -174 51 -7 68 67 24 106 -20 16 -28 71 -13 86 4 4 8 36 8 71 l0 63 68
70 c77 80 84 102 33 102 -19 0 -41 3 -49 6 -11 4 -15 -7 -19 -54z"/>
<path d="M1543 543 c-7 -3 -13 -13 -13 -24 0 -19 -22 -25 -77 -20 -22 2 -23
-2 -23 -69 0 -63 2 -70 20 -70 17 0 20 7 20 50 0 37 4 50 15 52 8 0 21 1 28 2
7 1 14 -18 17 -49 5 -46 7 -50 33 -53 29 -4 39 21 12 32 -9 3 -15 18 -15 36 0
18 6 33 15 36 19 8 20 34 1 34 -8 0 -16 11 -18 23 -2 14 -8 22 -15 20z"/>
<path d="M1731 541 c-10 -7 -14 -33 -15 -95 -1 -76 1 -86 17 -86 15 0 17 11
17 95 0 52 -1 95 -2 95 -2 0 -9 -4 -17 -9z"/>
<path d="M587 522 c-22 -24 -23 -110 -1 -140 10 -15 25 -22 48 -22 40 0 57 18
59 61 2 28 -1 32 -25 33 -30 2 -36 -12 -16 -32 16 -16 -4 -37 -27 -28 -24 9
-17 109 8 114 10 2 17 -3 17 -11 0 -10 7 -13 20 -10 11 3 20 11 20 17 0 37
-75 50 -103 18z"/>
<path d="M1210 450 c0 -83 1 -90 20 -90 17 0 20 7 20 40 0 36 3 40 25 40 16 0
25 6 25 15 0 9 -9 15 -25 15 -18 0 -25 5 -25 20 0 16 7 20 35 20 24 0 35 5 35
15 0 12 -13 15 -55 15 l-55 0 0 -90z"/>
<path d="M710 429 c0 -62 2 -69 20 -69 17 0 20 7 20 49 0 44 2 49 25 53 23 5
24 2 27 -46 l3 -51 48 -3 47 -3 0 71 c0 63 -2 71 -17 68 -14 -2 -19 -15 -21
-56 -4 -69 -26 -65 -30 5 l-3 50 -59 1 -60 0 0 -69z"/>
<path d="M920 404 c0 -79 2 -92 15 -88 8 4 15 15 15 25 0 14 7 19 25 19 29 0
45 25 45 70 0 51 -14 67 -60 67 l-40 0 0 -93z m60 25 c0 -28 -4 -39 -12 -37
-24 8 -22 78 2 78 5 0 10 -18 10 -41z"/>
<path d="M1047 482 c-19 -21 -22 -73 -7 -103 13 -23 62 -26 80 -4 20 24 16 96
-6 112 -25 18 -48 16 -67 -5z m48 -52 c0 -18 -6 -35 -12 -37 -9 -3 -13 8 -13
37 0 29 4 40 13 38 6 -3 12 -20 12 -38z"/>
<path d="M1327 482 c-19 -21 -22 -73 -7 -103 13 -24 62 -26 81 -3 20 24 16 95
-7 111 -25 18 -48 16 -67 -5z m48 -52 c0 -18 -6 -35 -12 -37 -9 -3 -13 8 -13
37 0 29 4 40 13 38 6 -3 12 -20 12 -38z"/>
<path d="M1618 493 c-27 -7 -10 -31 18 -25 18 3 24 0 24 -12 0 -9 -6 -16 -12
-15 -28 3 -39 -2 -47 -23 -15 -39 4 -58 54 -58 l45 0 0 58 c0 76 -18 92 -82
75z m40 -90 c-4 -22 -22 -20 -26 1 -2 10 3 16 13 16 10 0 15 -7 13 -17z"/>
<path d="M1786 487 c-23 -17 -27 -87 -7 -111 18 -21 76 -18 76 4 0 10 -8 14
-27 12 -20 -3 -28 1 -28 12 0 12 10 16 36 16 34 0 36 1 29 27 -13 52 -42 67
-79 40z m44 -32 c0 -8 -7 -15 -15 -15 -8 0 -15 7 -15 15 0 8 7 15 15 15 8 0
15 -7 15 -15z"/>
<path d="M1880 485 c0 -8 9 -15 20 -15 26 0 25 -3 -5 -48 -37 -54 -33 -62 25
-62 37 0 50 4 50 14 0 8 -11 16 -25 18 l-25 3 25 37 c37 55 34 68 -20 68 -33
0 -45 -4 -45 -15z"/>
<path d="M2003 493 c-24 -9 -14 -30 12 -25 19 3 25 0 25 -12 0 -10 -4 -14 -10
-11 -5 3 -19 1 -30 -5 -16 -9 -20 -19 -18 -43 3 -31 5 -32 51 -35 l47 -3 0 58
c0 33 -5 64 -12 71 -12 12 -43 15 -65 5z m37 -93 c0 -11 -4 -20 -9 -20 -14 0
-23 18 -16 30 10 17 25 11 25 -10z"/>
</g>
</svg>
